<svg width="252" height="252" viewBox="0 0 252 252" fill="none" style="background-color:#0F987F" xmlns="http://www.w3.org/2000/svg">
<path  d="M126 0C56.448 0 0 56.448 0 126C0 195.552 56.448 252 126 252C195.552 252 252 195.552 252 126C252 56.448 195.552 0 126 0ZM45.486 186.228C32.76 169.47 25.2 148.68 25.2 126C25.2 103.32 32.76 82.53 45.486 65.772C63.756 79.506 75.6 101.43 75.6 126C75.6 150.57 63.756 172.494 45.486 186.228ZM126 226.8C102.186 226.8 80.262 218.484 63 204.624C86.058 186.102 100.8 157.878 100.8 126C100.8 94.122 86.058 65.898 63 47.376C80.262 33.516 102.186 25.2 126 25.2C149.814 25.2 171.738 33.516 189 47.376C165.942 65.898 151.2 94.122 151.2 126C151.2 157.878 165.942 186.102 189 204.624C171.738 218.484 149.814 226.8 126 226.8ZM206.514 186.228C188.244 172.494 176.4 150.57 176.4 126C176.4 101.43 188.244 79.506 206.514 65.772C219.24 82.53 226.8 103.32 226.8 126C226.8 148.68 219.24 169.47 206.514 186.228Z" fill="white"/>
</svg>
